<svg xmlns="http://www.w3.org/2000/svg" width="159" height="159" viewBox="0 0 159 159" fill="none">
  <circle cx="79.8966" cy="79.6305" r="74.6081" stroke="#E9ECEF" stroke-width="4.38871"/>
  <path d="M79.8966 5.02246C98.2059 5.02246 115.876 11.755 129.543 23.9385C143.21 36.122 151.92 52.9057 154.015 71.0947C156.11 89.2837 151.443 107.608 140.903 122.579C130.363 137.55 114.686 148.123 96.8562 152.285C79.0263 156.447 60.2885 153.908 44.2096 145.15C28.1308 136.392 15.8337 122.028 9.65913 104.791C3.48458 87.5544 3.86376 68.6491 10.7245 51.6739C17.5852 34.6986 30.4484 20.8388 46.8655 12.7328" stroke="#1AA9E3" stroke-width="8.77743" stroke-linecap="round"/>
  <path d="M60.5646 97.8085C59.7537 98.7092 59.8264 100.097 60.727 100.908C61.6276 101.719 63.0151 101.646 63.826 100.745L60.5646 97.8085ZM99.1541 60.5488C99.0907 59.3386 98.0582 58.4089 96.8479 58.4723L77.1258 59.5059C75.9155 59.5693 74.9859 60.6019 75.0493 61.8121C75.1127 63.0223 76.1452 63.952 77.3555 63.8886L94.8863 62.9699L95.805 80.5007C95.8685 81.7109 96.901 82.6406 98.1112 82.5772C99.3215 82.5137 100.251 81.4812 100.188 80.271L99.1541 60.5488ZM63.826 100.745L98.5935 62.132L95.3321 59.1954L60.5646 97.8085L63.826 100.745Z" fill="#ADB5BD"/>
</svg>
