<svg xmlns="http://www.w3.org/2000/svg" width="159" height="159" viewBox="0 0 159 159" fill="none">
  <circle cx="79.8971" cy="79.6305" r="74.6081" stroke="#E9ECEF" stroke-width="4.38871"/>
  <path d="M79.8971 5.02246C98.2064 5.02246 115.876 11.755 129.543 23.9385C143.211 36.122 151.921 52.9057 154.015 71.0947C156.11 89.2837 151.443 107.608 140.903 122.579C130.364 137.55 114.687 148.123 96.8567 152.285C79.0268 156.447 60.289 153.908 44.2101 145.15C28.1313 136.392 15.8342 122.028 9.65962 104.791C3.48507 87.5544 3.86425 68.6491 10.725 51.6739C17.5857 34.6986 30.4489 20.8388 46.8659 12.7328" stroke="#1AA9E3" stroke-width="8.77743" stroke-linecap="round"/>
  <path d="M60.5656 97.8085C59.7546 98.7092 59.8274 100.097 60.728 100.908C61.6286 101.719 63.0161 101.646 63.827 100.745L60.5656 97.8085ZM99.1551 60.5488C99.0917 59.3386 98.0592 58.4089 96.8489 58.4723L77.1268 59.5059C75.9165 59.5693 74.9868 60.6019 75.0503 61.8121C75.1137 63.0223 76.1462 63.952 77.3565 63.8886L94.8873 62.9699L95.806 80.5007C95.8694 81.7109 96.902 82.6406 98.1122 82.5772C99.3225 82.5137 100.252 81.4812 100.189 80.271L99.1551 60.5488ZM63.827 100.745L98.5945 62.132L95.333 59.1954L60.5656 97.8085L63.827 100.745Z" fill="#ADB5BD"/>
</svg>
