<svg width="159" height="159" viewBox="0 0 159 159" fill="none" xmlns="http://www.w3.org/2000/svg">
<circle cx="79.3698" cy="79.6305" r="74.6081" stroke="#E9ECEF" stroke-width="4.38871"/>
<path d="M79.3698 5.02246C97.679 5.02246 115.349 11.755 129.016 23.9385C142.683 36.122 151.393 52.9057 153.488 71.0947C155.583 89.2837 150.916 107.608 140.376 122.579C129.836 137.55 114.159 148.123 96.3294 152.285C78.4994 156.447 59.7616 153.908 43.6828 145.15C27.6039 136.392 15.3068 122.028 9.13228 104.791C2.95773 87.5544 3.3369 68.6491 10.1976 51.6739C17.0583 34.6986 29.9215 20.8388 46.3386 12.7328" stroke="#1AA9E3" stroke-width="8.77743" stroke-linecap="round"/>
<path d="M106.025 85.7872L78.9477 105.466L51.8704 85.7872C51.5074 85.5203 51.2381 85.1453 51.1011 84.7161C50.9641 84.2868 50.9664 83.8252 51.1076 83.3973L54.2094 73.7868L60.4131 54.6928C60.4732 54.5373 60.569 54.3979 60.6927 54.2861C60.8942 54.102 61.1572 54 61.4301 54C61.7029 54 61.9659 54.102 62.1674 54.2861C62.298 54.4123 62.3943 54.5698 62.447 54.7437L68.6507 73.7868H89.2447L95.4483 54.6928C95.5085 54.5373 95.6042 54.3979 95.728 54.2861C95.9294 54.102 96.1924 54 96.4653 54C96.7381 54 97.0011 54.102 97.2026 54.2861C97.3332 54.4123 97.4295 54.5698 97.4823 54.7437L103.686 73.8376L106.915 83.3973C107.043 83.8384 107.026 84.3092 106.866 84.7397C106.705 85.1702 106.411 85.5376 106.025 85.7872V85.7872Z" stroke="#1AA9E3" stroke-width="6" stroke-linecap="round" stroke-linejoin="round"/>
</svg>
