<svg width="159" height="159" viewBox="0 0 159 159" fill="none" xmlns="http://www.w3.org/2000/svg">
<circle cx="79.3698" cy="79.3703" r="74.6081" stroke="#E9ECEF" stroke-width="4.38871"/>
<path d="M79.3698 4.76221C97.679 4.76221 115.349 11.4947 129.016 23.6782C142.683 35.8617 151.393 52.6454 153.488 70.8344C155.583 89.0234 150.916 107.348 140.376 122.319C129.836 137.29 114.159 147.863 96.3294 152.025C78.4994 156.187 59.7616 153.648 43.6828 144.89C27.6039 136.132 15.3068 121.768 9.13228 104.531C2.95773 87.2942 3.3369 68.3888 10.1976 51.4136C17.0583 34.4384 29.9215 20.5786 46.3386 12.4726" stroke="#1AA9E3" stroke-width="8.77743" stroke-linecap="round"/>
<g clip-path="url(#clip0_464_33)">
<path d="M90.6673 97.9995V93.3328C90.6673 90.8575 89.684 88.4835 87.9337 86.7332C86.1833 84.9828 83.8093 83.9995 81.334 83.9995H62.6673C60.192 83.9995 57.818 84.9828 56.0677 86.7332C54.3173 88.4835 53.334 90.8575 53.334 93.3328V97.9995M104.667 97.9995V93.3328C104.666 91.2649 103.977 89.256 102.711 87.6216C101.444 85.9872 99.6696 84.8198 97.6673 84.3028M88.334 56.3028C90.3416 56.8169 92.1211 57.9845 93.3918 59.6216C94.6625 61.2587 95.3523 63.2721 95.3523 65.3445C95.3523 67.4169 94.6625 69.4304 93.3918 71.0675C92.1211 72.7045 90.3416 73.8721 88.334 74.3862M81.334 65.3328C81.334 70.4875 77.1553 74.6662 72.0007 74.6662C66.846 74.6662 62.6673 70.4875 62.6673 65.3328C62.6673 60.1782 66.846 55.9995 72.0007 55.9995C77.1553 55.9995 81.334 60.1782 81.334 65.3328Z" stroke="#1AA9E3" stroke-width="6.91667" stroke-linecap="round" stroke-linejoin="round"/>
</g>
<defs>
<clipPath id="clip0_464_33">
<rect width="56" height="56" fill="white" transform="translate(51 49)"/>
</clipPath>
</defs>
</svg>
