<svg width="159" height="159" viewBox="0 0 159 159" fill="none" xmlns="http://www.w3.org/2000/svg">
<circle cx="79.0622" cy="79.3703" r="74.6081" stroke="#E9ECEF" stroke-width="4.38871"/>
<path d="M79.0622 4.76221C97.3714 4.76221 115.041 11.4947 128.709 23.6782C142.376 35.8617 151.086 52.6454 153.18 70.8344C155.275 89.0234 150.608 107.348 140.068 122.319C129.529 137.29 113.852 147.863 96.0217 152.025C78.1918 156.187 59.454 153.648 43.3752 144.89C27.2963 136.132 14.9992 121.768 8.82466 104.531C2.65011 87.2942 3.02929 68.3888 9.89 51.4136C16.7507 34.4384 29.6139 20.5786 46.031 12.4726" stroke="#1AA9E3" stroke-width="8.77743" stroke-linecap="round"/>
<path d="M78.9997 101.333C78.9997 101.333 97.6663 91.9998 97.6663 77.9998V61.6665L78.9997 54.6665L60.333 61.6665V77.9998C60.333 91.9998 78.9997 101.333 78.9997 101.333Z" stroke="#1AA9E3" stroke-width="6" stroke-linecap="round" stroke-linejoin="round"/>
</svg>
